<svg width="32" height="26" viewBox="0 0 32 26" fill="none" xmlns="http://www.w3.org/2000/svg">
<path d="M32 3.61111C29.0768 4.09259 26.931 5.29629 25.5627 7.22222C24.1944 9.08796 23.448 11.4051 23.3236 14.1736C23.6346 14.0532 23.9456 13.963 24.2566 13.9028C24.6297 13.7824 25.034 13.7222 25.4694 13.7222C27.2731 13.7222 28.6725 14.294 29.6676 15.4375C30.725 16.581 31.2536 18.0255 31.2536 19.7708C31.2536 21.5764 30.6939 23.081 29.5743 24.2847C28.4548 25.4282 26.8999 26 24.9096 26C23.0437 26 21.4888 25.338 20.2449 24.0139C19.001 22.6898 18.379 20.7338 18.379 18.1458C18.379 13.9931 18.9388 10.6227 20.0583 8.03472C21.1778 5.44675 22.7638 3.52083 24.8163 2.25694C26.8688 0.932867 29.2634 0.180553 32 0V3.61111ZM13.7143 3.61111C10.7911 4.09259 8.64529 5.29629 7.27697 7.22222C5.90865 9.08796 5.16229 11.4051 5.0379 14.1736C5.28669 14.0532 5.56657 13.963 5.87755 13.9028C6.25073 13.7824 6.655 13.7222 7.09038 13.7222C8.89407 13.7222 10.3246 14.294 11.3819 15.4375C12.4393 16.581 12.9679 18.0255 12.9679 19.7708C12.9679 21.5764 12.3771 23.081 11.1953 24.2847C10.0758 25.4282 8.55199 26 6.62391 26C4.69582 26 3.10982 25.338 1.86589 24.0139C0.621963 22.6898 0 20.7338 0 18.1458C0 13.9931 0.559767 10.6227 1.6793 8.03472C2.79883 5.44675 4.38484 3.52083 6.43732 2.25694C8.4898 0.932867 10.9155 0.180553 13.7143 0V3.61111Z" fill="black"/>
</svg>
